<?xml version="1.0" encoding="UTF-8" standalone="no"?>
<svg width="189px" height="43px" viewBox="0 0 189 43" version="1.1" xmlns="http://www.w3.org/2000/svg" xmlns:xlink="http://www.w3.org/1999/xlink">
    <!-- Generator: Sketch 39.1 (31720) - http://www.bohemiancoding.com/sketch -->
    <title>logo</title>
    <desc>Created with Sketch.</desc>
    <defs>
        <polygon id="path-1" points="0.238900332 4.99061265 4.65550235 4.99061265 4.65550235 0.660757115 0.238900332 0.660757115 0.238900332 4.99061265"></polygon>
        <polygon id="path-3" points="11.9704676 13.3079677 11.9704676 0.536989921 0.246365968 0.536989921 0.246365968 13.3079677"></polygon>
    </defs>
    <g id="Page-1" stroke="none" stroke-width="1" fill="none" fill-rule="evenodd">
        <g id="Filter" transform="translate(-125.000000, -296.000000)">
            <g id="step2" transform="translate(0.000000, 296.000000)">
                <g id="menu">
                    <g id="logo" transform="translate(125.000000, 0.000000)">
                        <path d="M37.6878848,39.4309278 L33.507129,39.4309278 L33.507129,23.5957138 L37.6878848,23.5957138 C42.3437265,23.5957138 45.7321069,26.9177983 45.7321069,31.4825454 C45.7321069,36.0772361 42.3437265,39.4309278 37.6878848,39.4309278 M38.1307327,20.6462618 L30.8483447,20.6462618 C30.5310552,20.6462618 30.2782417,20.9257361 30.2782417,21.2368176 L30.2782417,41.7914875 C30.2782417,42.1009055 30.5310552,42.3803798 30.8483447,42.3803798 L38.1307327,42.3803798 C44.2423733,42.3803798 49.2460457,37.5062148 49.2460457,31.4825454 C49.2460457,25.5220903 44.2423733,20.6462618 38.1307327,20.6462618" id="Fill-4" fill="#FFFFFF"></path>
                        <path d="M0,0 L0,33.78664 C0,34.1511972 0.214495271,34.2394233 0.476280837,33.9814034 L10.5575586,24.0451391 C10.8193441,23.7871191 11.2466457,23.7871191 11.5084313,24.0451391 L14.6279019,27.1197379 C14.8896874,27.3777578 15.1041827,27.2911963 15.1041827,26.9266391 L15.1041827,24.4496477 C15.1041827,24.2881772 15.2376089,24.1583349 15.3997471,24.1583349 L17.8233747,24.1583349 C17.9855129,24.1583349 18.1189391,24.2898418 18.1189391,24.4496477 L18.1189391,29.8963653 C18.1189391,30.2609224 18.3334344,30.7703037 18.5952199,31.0283237 L21.589709,33.9814034 C21.8514946,34.2394233 22.0659898,34.1511972 22.0659898,33.78664 L22.0659898,0 L0,0 Z" id="Fill-1" fill="#FFFFFF"></path>
                        <path d="M57.3550831,40.0209845 C55.3597224,40.0209845 53.7766684,38.2825878 53.7766684,36.1399514 C53.7766684,34.0605295 55.3597224,32.3520764 57.3550831,32.3520764 C59.3504439,32.3520764 60.9334979,34.0605295 60.9334979,36.1399514 C60.9334979,38.2825878 59.3504439,40.0209845 57.3550831,40.0209845 M57.3550831,29.6504915 C53.8089063,29.6504915 50.958391,32.6315507 50.958391,36.1399514 C50.958391,39.709903 53.8089063,42.6909623 57.3550831,42.6909623 C60.90126,42.6909623 63.7517753,39.709903 63.7517753,36.1399514 C63.7517753,32.6315507 60.90126,29.6504915 57.3550831,29.6504915" id="Fill-6" fill="#FFFFFF"></path>
                        <path d="M81.6767658,29.6509905 C79.2690984,29.6509905 77.4332308,31.2962292 77.0854001,31.6389179 C76.1674663,30.3646481 74.8372258,29.6509905 72.9996614,29.6509905 C70.5614528,29.6509905 69.1056539,31.1099129 68.8206024,31.3893873 L68.4710749,30.3347044 C68.3760577,30.116781 68.2182613,29.962072 67.9332098,29.962072 L67.0458172,29.962072 C66.7302244,29.962072 66.4451729,30.2415463 66.4451729,30.5509643 L66.4451729,41.7914875 C66.4451729,42.1009055 66.7302244,42.3803798 67.0458172,42.3803798 L68.8206024,42.3803798 C69.1361951,42.3803798 69.4212467,42.1009055 69.4212467,41.7914875 L69.4212467,34.2157375 C69.5807398,33.8114979 70.65647,32.3525755 72.5568135,32.3525755 C74.3299019,32.3525755 75.2478357,33.4388655 75.2478357,35.4251293 L75.2478357,41.7914875 C75.2478357,42.1009055 75.502346,42.3803798 75.8501768,42.3803798 L77.528248,42.3803798 C77.8455375,42.3803798 78.130589,42.1009055 78.130589,41.7914875 L78.130589,35.3635785 C78.130589,34.743079 78.098351,34.1525231 78.0355718,33.8730488 C78.2561474,33.6867326 79.3658123,32.3525755 81.2966971,32.3525755 C83.0070063,32.3525755 83.9249401,33.4704727 83.9249401,35.4251293 L83.9249401,41.7914875 C83.9249401,42.1009055 84.1794504,42.3803798 84.5272812,42.3803798 L86.3003696,42.3803798 C86.6482003,42.3803798 86.9027106,42.1009055 86.9027106,41.7914875 L86.9027106,35.5498947 C86.9027106,32.3209683 85.5402321,29.6509905 81.6767658,29.6509905" id="Fill-8" fill="#FFFFFF"></path>
                        <path d="M95.8334769,40.0209845 C93.8381162,40.0209845 92.2550621,38.2825878 92.2550621,36.1399514 C92.2550621,34.0605295 93.8381162,32.3520764 95.8334769,32.3520764 C97.8288376,32.3520764 99.4118917,34.0605295 99.4118917,36.1399514 C99.4118917,38.2825878 97.8288376,40.0209845 95.8334769,40.0209845 M95.8334769,29.6504915 C92.2873001,29.6504915 89.4367848,32.6315507 89.4367848,36.1399514 C89.4367848,39.709903 92.2873001,42.6909623 95.8334769,42.6909623 C99.3796537,42.6909623 102.230169,39.709903 102.230169,36.1399514 C102.230169,32.6315507 99.3796537,29.6504915 95.8334769,29.6504915" id="Fill-10" fill="#FFFFFF"></path>
                        <path d="M115.025759,22.2924985 C115.153014,22.0745751 115.120776,21.7651571 114.898504,21.5788409 C114.328401,21.0814432 112.99816,20.3361784 111.289548,20.3361784 C108.248998,20.3361784 105.905807,22.2608913 105.905807,26.1119807 L105.905807,29.9614066 L104.41777,29.9614066 C104.068242,29.9614066 103.815429,30.2092737 103.815429,30.5519625 L103.815429,31.949334 C103.815429,32.258752 104.068242,32.5382263 104.41777,32.5382263 L105.905807,32.5382263 L105.905807,41.7908221 C105.905807,42.1019037 106.190858,42.381378 106.506451,42.381378 L108.374557,42.381378 C108.691846,42.381378 108.976898,42.1019037 108.976898,41.7908221 L108.976898,32.5382263 L112.397516,32.5382263 C112.745347,32.5382263 112.99816,32.258752 112.99816,31.949334 L112.99816,30.5519625 C112.99816,30.2092737 112.745347,29.9614066 112.397516,29.9614066 L108.976898,29.9614066 L108.976898,26.1119807 C108.976898,24.0308953 109.959307,23.0377633 111.352327,23.0377633 C112.112465,23.0377633 113.030398,23.5035539 113.442705,23.7830282 C113.758298,24.0009516 114.075587,23.9693444 114.23508,23.6898701 L115.025759,22.2924985 Z" id="Fill-12" fill="#FFFFFF"></path>
                        <path d="M120.505875,40.0209845 C118.510514,40.0209845 116.92746,38.2825878 116.92746,36.1399514 C116.92746,34.0605295 118.510514,32.3520764 120.505875,32.3520764 C122.501236,32.3520764 124.08429,34.0605295 124.08429,36.1399514 C124.08429,38.2825878 122.501236,40.0209845 120.505875,40.0209845 M120.505875,29.6504915 C116.959698,29.6504915 114.109183,32.6315507 114.109183,36.1399514 C114.109183,39.709903 116.959698,42.6909623 120.505875,42.6909623 C124.052052,42.6909623 126.902567,39.709903 126.902567,36.1399514 C126.902567,32.6315507 124.052052,29.6504915 120.505875,29.6504915" id="Fill-14" fill="#FFFFFF"></path>
                        <path d="M136.436014,29.6509905 C133.902788,29.6509905 132.224717,31.1415202 132.002444,31.3893873 L131.622376,30.3347044 C131.559596,30.116781 131.369562,29.962072 131.116748,29.962072 L130.197118,29.962072 C129.881525,29.962072 129.596474,30.2415463 129.596474,30.5509643 L129.596474,41.7914875 C129.596474,42.1009055 129.881525,42.3803798 130.197118,42.3803798 L131.844648,42.3803798 C132.382513,42.3803798 132.572547,42.1940636 132.572547,41.7914875 L132.572547,34.2157375 C132.73204,33.7798907 134.092822,32.3525755 136.088183,32.3525755 C137.734016,32.3525755 138.716426,33.4388655 138.716426,35.4251293 L138.716426,41.7914875 C138.716426,42.1009055 138.969239,42.3803798 139.31707,42.3803798 L141.124093,42.3803798 C141.439686,42.3803798 141.724738,42.1009055 141.724738,41.7914875 L141.724738,35.5498947 C141.724738,32.3209683 140.29948,29.6509905 136.436014,29.6509905" id="Fill-16" fill="#FFFFFF"></path>
                        <g id="Group-20" transform="translate(144.222502, 20.435694)" fill="#FFFFFF">
                            <path d="M9.37904379,17.7224613 C9.21955067,18.0634865 8.30161687,19.5856234 6.37073208,19.5856234 C4.34313338,19.5856234 3.01458963,17.8156194 3.01458963,15.7361975 C3.01458963,13.6235048 4.50092977,11.9167153 6.62354564,11.9167153 C8.27107563,11.9167153 9.37904379,12.6619801 9.37904379,12.6619801 L9.37904379,17.7224613 Z M11.7850145,0.210401532 L9.94914686,0.210401532 C9.63185735,0.210401532 9.34680582,0.48987584 9.34680582,0.800957362 L9.34680582,9.89884422 C9.06175429,9.80568612 7.92154816,9.21513029 6.30625614,9.21513029 C2.79231731,9.21513029 0.0690571273,12.1030315 0.0690571273,15.7361975 C0.0690571273,19.3061491 2.63452092,22.2556011 5.99066337,22.2556011 C8.49165122,22.2556011 10.0119261,20.5172044 10.0119261,20.5172044 L10.2647396,21.4171782 C10.3597568,21.7282597 10.5497912,21.9445196 10.8348427,21.9445196 L11.7850145,21.9445196 C12.102304,21.9445196 12.3873555,21.6650453 12.3873555,21.3556273 L12.3873555,0.800957362 C12.3873555,0.48987584 12.102304,0.210401532 11.7850145,0.210401532 L11.7850145,0.210401532 Z" id="Fill-18"></path>
                        </g>
                        <g id="Group-23" transform="translate(159.493119, 37.700516)">
                            <mask id="mask-2" fill="white">
                                <use xlink:href="#path-1"></use>
                            </mask>
                            <g id="Clip-22"></g>
                            <path d="M2.43108236,0.660757115 C1.22300681,0.660757115 0.238900332,1.62560889 0.238900332,2.84165484 C0.238900332,4.02443004 1.22300681,4.99094536 2.43108236,4.99094536 C3.66969914,4.99094536 4.65550235,4.02443004 4.65550235,2.84165484 C4.65550235,1.62560889 3.66969914,0.660757115 2.43108236,0.660757115" id="Fill-21" fill="#FFFFFF" mask="url(#mask-2)"></path>
                        </g>
                        <path d="M172.82878,29.608404 C170.509343,29.608404 169.333506,31.1039242 169.111233,31.4150057 L168.761706,30.3553323 C168.698927,30.1074652 168.444416,29.9194855 168.222144,29.9194855 L167.300817,29.9194855 C166.98183,29.9194855 166.696779,30.2006233 166.696779,30.5117048 L166.696779,41.7888259 C166.696779,42.0999074 166.98183,42.3793817 167.300817,42.3793817 L168.824485,42.3793817 C169.333506,42.3793817 169.683033,42.3178308 169.683033,41.7888259 L169.683033,33.8753778 C169.810288,33.6574543 170.699378,32.3499138 172.542032,32.3499138 C172.956035,32.3499138 173.432818,32.4746792 173.622852,32.5678373 C173.907904,32.6926026 174.22689,32.6293881 174.384687,32.2866994 L175.148218,30.7612355 C175.497745,29.9194855 174.036856,29.608404 172.82878,29.608404" id="Fill-24" fill="#FFFFFF"></path>
                        <g id="Group-28" transform="translate(176.460473, 29.382828)">
                            <mask id="mask-4" fill="white">
                                <use xlink:href="#path-3"></use>
                            </mask>
                            <g id="Clip-27"></g>
                            <path d="M11.3667692,0.536989921 L9.71414902,0.536989921 C9.26960436,0.536989921 9.01509407,0.630148024 9.01509407,1.12920929 L9.01509407,8.57353982 C8.92007689,9.13415198 7.74593605,10.6296722 5.87104353,10.6296722 C4.25066131,10.6296722 3.26485809,9.54005514 3.26485809,7.5138664 L3.26485809,1.12920929 C3.26485809,0.816464229 2.97980656,0.536989921 2.66251705,0.536989921 L0.850403739,0.536989921 C0.533114235,0.536989921 0.246365968,0.816464229 0.246365968,1.12920929 L0.246365968,7.4207083 C0.246365968,10.6612794 1.58169666,13.3079677 5.39426091,13.3079677 C7.96651164,13.3079677 9.30184234,11.8440546 9.5885906,11.594524 L9.90588011,12.4978249 C10.0008973,12.7789627 10.1586937,12.9968862 10.4776799,12.9968862 L11.3667692,12.9968862 C11.6840587,12.9968862 11.970807,12.7174119 11.970807,12.4046668 L11.970807,1.12920929 C11.970807,0.816464229 11.6840587,0.536989921 11.3667692,0.536989921" id="Fill-26" fill="#FFFFFF" mask="url(#mask-4)"></path>
                        </g>
                    </g>
                </g>
            </g>
        </g>
    </g>
</svg>